# xmcd
#
# Track frame offsets:
#	150
#	17692
#	33850
#	52844
#	69189
#	85987
#	104258
#	117287
#	134454
#	148690
#	164209
#	175607
#	194573
#	212093
#	227397
#
# Disc length: 3188 seconds
#
# Revision: 1
# Processed by: cddbd v1.5.2PL0 Copyright (c) Steve Scherf et al.
# Submitted via: audiograbber 1.83.01
#
DISCID=c90c720f
DTITLE=fünf vor der ehe - JETZT
DYEAR=2010
DGENRE=Pop
TTITLE0=das! jetzt!
TTITLE1=mein jahr
TTITLE2=star
TTITLE3=licht und stille
TTITLE4=voyeur
TTITLE5=sommer am meer
TTITLE6=schaumalwiederporno.com
TTITLE7=liebe übers internet
TTITLE8=musiker
TTITLE9=mal was fragen
TTITLE10=tradition
TTITLE11=bitte melde dich
TTITLE12=pisakind
TTITLE13=ich haue ab
TTITLE14=du bist mein tag
EXTD=
EXTT0=
EXTT1=
EXTT2=
EXTT3=
EXTT4=
EXTT5=
EXTT6=
EXTT7=
EXTT8=
EXTT9=
EXTT10=
EXTT11=
EXTT12=
EXTT13=
EXTT14=
PLAYORDER=
